<?xml version="1.0" encoding="utf-8"?>
<!-- Generator: Adobe Illustrator 26.0.3, SVG Export Plug-In . SVG Version: 6.00 Build 0)  -->
<svg version="1.0" id="Layer_1" xmlns="http://www.w3.org/2000/svg" xmlns:xlink="http://www.w3.org/1999/xlink" x="0px" y="0px"
	 viewBox="0 0 500 500" style="enable-background:new 0 0 500 500;" xml:space="preserve">
<g>
	<path style="fill:#BE0000;" d="M-76.5,2.8c8.4-2.4,17-4.3,25.5-6.1c2.1-0.3,4.3,0.2,6.4,0.1c3.9,0,15.1,0,19.2,0
		c25.4,0,76.6,0,102,0c7.9-0.1,16.1-1.2,23.4-3.5c4-0.3,7.9-1,11.7-2.2c3.8-1.2,7.6-3,10.9-6c-0.7,2.1-1.7,4.1-3,6.1
		c-4,5.9-9.9,10.2-16.1,13.5c-1,0.6-2.2,0.8-3.3,1c-3.3,0.8-6.7,1.5-10.1,2c-8.9,1.9-54.8,0.8-64.7,1.1c-13.8,0-57,0-70.2,0
		c-2.1-0.1-4.3,0.3-6.4,0.1c-4.3-0.9-8.5-1.8-12.8-2.8C-68,5.2-72.2,4.1-76.5,2.8L-76.5,2.8z"/>
</g>
<g>
	<path style="fill:#FFFFFF;" d="M-41.3,2.8c0,0-60.7,0.8-81.4-17.9"/>
	<path style="fill:#BE0000;" d="M-41.3,2.8c-3.4,2.4-7.1,4.2-10.8,5.9c-0.5,0.2-0.9,0-1.3-0.1c-3.1-0.3-6.4-0.3-9.4-0.6
		C-77.5,6.9-91.9,5-106,0.4c-3.6-1.2-7.1-2.6-10.6-4.3c-2.1-2.5-3.8-5.2-5.1-8.1c-0.4-1-0.8-2-1-3c3.8,0.5,7.8,0.6,11.5,0.4
		c8.9,4.4,18.7,6.6,28.7,8.3c9.7,1.5,19.7,2.6,29.6,2.9c0.4-0.1,0.9-0.2,1.3,0C-48.1-1.5-44.7,0.5-41.3,2.8L-41.3,2.8z"/>
</g>
<line style="fill:#FFFFFF;stroke:#666666;stroke-width:13;stroke-miterlimit:10;" x1="57.3" y1="15" x2="71.3" y2="15"/>
<line style="fill:#FFFFFF;stroke:#666666;stroke-width:13;stroke-miterlimit:10;" x1="-52.3" y1="14.8" x2="-38.3" y2="14.8"/>
</svg>
