<?xml version="1.0" encoding="utf-8"?>
<!-- Generator: Adobe Illustrator 26.0.3, SVG Export Plug-In . SVG Version: 6.00 Build 0)  -->
<!DOCTYPE svg PUBLIC "-//W3C//DTD SVG 1.1//EN" "http://www.w3.org/Graphics/SVG/1.1/DTD/svg11.dtd" [
	<!ENTITY st0 "stroke:#000000;stroke-miterlimit:10;">
]>
<svg version="1.1" id="Layer_1" xmlns="http://www.w3.org/2000/svg" xmlns:xlink="http://www.w3.org/1999/xlink" x="0px" y="0px"
	 viewBox="0 0 500 500" style="enable-background:new 0 0 500 500;" xml:space="preserve">
<ellipse style="&st0;" cx="6.8" cy="-84.8" rx="36.8" ry="36"/>
<g>
	<path d="M27,58.5c-0.6-10.7-1.4-23.4-3-33.6C21.6,8.7,18.1-4.1,13.1-19.1C9.8-29.4,6-39.6,2.9-50.1c-1-3-1.9-6.1-2.5-9.7L2-61.7
		c8.5,6.6,16.4,14.1,23.1,22.5c0.8,1.1,3.1,4.1,3.9,5.2c2.3,3.5,4.7,7.5,6.7,11.2C49.5,3.2,47,36.7,28.9,59.9
		C28.9,59.9,27,58.5,27,58.5L27,58.5z"/>
</g>
<g>
	<path d="M32,121.3C20.2,114.9,11.9,103,9.8,89.5c-2.2-13.7,3.1-27.9,11.5-38.4c0,0,5.5,9,5.5,9c-0.3,0-0.9,0.1-1.3,0.1
		C9.9,62.4-5,69.3-17.2,79.2C-30.1,89.7-39,104.6-43,120.9c0,0-1.2-0.2-1.2-0.2c1-8.6,3.4-17.1,7.1-25c11.5-24.6,36.4-40.7,62.3-47
		c0,0,12.5-2.5,12.5-2.5C29.8,59,20.3,73.1,20.6,88.6c0.1,11.4,5.1,22.5,12.2,31.8C32.8,120.3,32,121.3,32,121.3L32,121.3z"/>
</g>
</svg>
