<?xml version="1.0" encoding="utf-8"?>
<!-- Generator: Adobe Illustrator 26.0.3, SVG Export Plug-In . SVG Version: 6.00 Build 0)  -->
<svg version="1.0" id="Layer_1" xmlns="http://www.w3.org/2000/svg" xmlns:xlink="http://www.w3.org/1999/xlink" x="0px" y="0px"
	 viewBox="0 0 500 500" style="enable-background:new 0 0 500 500;" xml:space="preserve">
<ellipse style="stroke:#000000;stroke-miterlimit:10;" cx="8" cy="-204.8" rx="36.8" ry="36"/>
<g>
	<path d="M28.2-61.5c-0.6-10.7-1.4-23.4-3-33.6c-2.4-16.1-5.9-28.9-10.9-43.9c-3.3-10.4-7.2-20.6-10.2-31.1c-1-3-1.9-6.1-2.5-9.7
		c0,0,1.5-1.8,1.5-1.8c8.5,6.6,16.4,14.1,23.1,22.5c0.8,1.1,3.1,4.1,3.9,5.2c2.3,3.5,4.7,7.5,6.7,11.2c13.8,25.9,11.3,59.4-6.8,82.7
		C30.1-60.1,28.2-61.5,28.2-61.5L28.2-61.5z"/>
</g>
<g>
	<path d="M33.2,1.3C21.4-5.1,13.1-17,11-30.5C8.8-44.2,14-58.4,22.5-68.9c0,0,5.5,9,5.5,9c-0.3,0-0.9,0.1-1.3,0.1
		c-15.6,2.2-30.5,9-42.7,18.9C-28.9-30.3-37.8-15.4-41.8,0.9c0,0-1.2-0.2-1.2-0.2c1-8.6,3.4-17.1,7.1-25
		c11.5-24.6,36.4-40.7,62.3-47c0,0,12.5-2.5,12.5-2.5C31-61,21.5-46.9,21.8-31.4C21.9-20,26.9-8.9,34,0.3C34,0.3,33.2,1.3,33.2,1.3
		L33.2,1.3z"/>
</g>
</svg>
