<?xml version="1.0" encoding="utf-8"?>
<!-- Generator: Adobe Illustrator 26.0.3, SVG Export Plug-In . SVG Version: 6.00 Build 0)  -->
<svg version="1.0" id="Layer_1" xmlns="http://www.w3.org/2000/svg" xmlns:xlink="http://www.w3.org/1999/xlink" x="0px" y="0px"
	 viewBox="0 0 500 500" style="enable-background:new 0 0 500 500;" xml:space="preserve">
<g>
	<line style="fill:#FFFFFF;" x1="90.2" y1="-53.4" x2="-1" y2="1.8"/>
	<path d="M90.4-53.1c-6.5,6.2-13.8,11.5-21.2,16.5c-7.3,5-15.4,8.9-23.2,13.2C31-14.9,14.4-5.9-0.8,2.1c0,0-0.4-0.6-0.4-0.6
		C13-8.3,28.7-18.8,43.2-28.2c3.7-2.4,7.4-5,11.1-7.5c7.4-5,15.2-9.2,23.3-13c4.1-1.9,8.2-3.6,12.5-5.1L90.4-53.1L90.4-53.1z"/>
</g>
</svg>
