<?xml version="1.0" encoding="utf-8"?>
<!-- Generator: Adobe Illustrator 26.0.3, SVG Export Plug-In . SVG Version: 6.00 Build 0)  -->
<svg version="1.0" id="Layer_1" xmlns="http://www.w3.org/2000/svg" xmlns:xlink="http://www.w3.org/1999/xlink" x="0px" y="0px"
	 viewBox="0 0 500 500" style="enable-background:new 0 0 500 500;" xml:space="preserve">
<g>
	<line style="fill:#FFFFFF;" x1="45.6" y1="-27.6" x2="-45.6" y2="27.6"/>
	<path d="M45.8-27.3C39.2-21.1,32-15.8,24.6-10.8C17.3-5.8,9.2-1.9,1.4,2.4c-15.1,8.5-31.6,17.5-46.9,25.5c0,0-0.4-0.6-0.4-0.6
		C-31.6,17.5-15.9,7-1.4-2.4c3.7-2.4,7.4-5,11.1-7.5c7.4-5,15.2-9.2,23.3-13c4.1-1.9,8.2-3.6,12.5-5.1
		C45.4-27.9,45.8-27.3,45.8-27.3L45.8-27.3z"/>
</g>
</svg>
