<?xml version="1.0" encoding="utf-8"?>
<!-- Generator: Adobe Illustrator 26.0.3, SVG Export Plug-In . SVG Version: 6.00 Build 0)  -->
<svg version="1.0" id="Layer_1" xmlns="http://www.w3.org/2000/svg" xmlns:xlink="http://www.w3.org/1999/xlink" x="0px" y="0px"
	 viewBox="0 0 500 500" style="enable-background:new 0 0 500 500;" xml:space="preserve">
<g>
	<line style="fill:#FFFFFF;" x1="-90.2" y1="-52.4" x2="1" y2="2.8"/>
	<path d="M-90-52.7c8.5,2.9,16.5,6.9,24.4,11.1c7.9,4.2,15,9.5,22.4,14.4C-28.7-17.8-13-7.3,1.2,2.5c0,0-0.4,0.6-0.4,0.6
		C-14.4-4.9-31-14-46-22.4c-3.9-2.2-7.8-4.2-11.7-6.3C-65.7-32.9-73-38-80.1-43.4c-3.5-2.7-7-5.6-10.3-8.7
		C-90.4-52.1-90-52.7-90-52.7L-90-52.7z"/>
</g>
</svg>
