<?xml version="1.0" encoding="utf-8"?>
<!-- Generator: Adobe Illustrator 26.0.3, SVG Export Plug-In . SVG Version: 6.00 Build 0)  -->
<svg version="1.0" id="Layer_1" xmlns="http://www.w3.org/2000/svg" xmlns:xlink="http://www.w3.org/1999/xlink" x="0px" y="0px"
	 viewBox="0 0 500 500" style="enable-background:new 0 0 500 500;" xml:space="preserve">
<g>
	<line style="fill:#FFFFFF;" x1="-45.6" y1="-27.6" x2="45.6" y2="27.6"/>
	<path d="M-45.4-27.9C-36.9-25-28.9-21-21-16.8c7.9,4.2,15,9.5,22.4,14.4C15.9,7,31.6,17.5,45.8,27.3c0,0-0.4,0.6-0.4,0.6
		c-15.2-8-31.8-17.1-46.9-25.5c-3.9-2.2-7.8-4.2-11.7-6.3c-7.9-4.2-15.2-9.2-22.3-14.6c-3.5-2.7-7-5.6-10.3-8.7L-45.4-27.9
		L-45.4-27.9z"/>
</g>
</svg>
