<?xml version="1.0" encoding="utf-8"?>
<!-- Generator: Adobe Illustrator 26.0.3, SVG Export Plug-In . SVG Version: 6.00 Build 0)  -->
<svg version="1.0" id="Layer_1" xmlns="http://www.w3.org/2000/svg" xmlns:xlink="http://www.w3.org/1999/xlink" x="0px" y="0px"
	 viewBox="0 0 500 500" style="enable-background:new 0 0 500 500;" xml:space="preserve">
<path style="fill:#FFFF00;stroke:#9E005D;stroke-width:4;stroke-miterlimit:10;" d="M44.8-0.2c0-18.6-11.3-34.6-27.5-41.5
	C12-43.9,6.1-45.2-0.2-45.2c-24.9,0-45,20.1-45,45c0,24.9,20.1,45,45,45C24.7,44.8,44.8,24.7,44.8-0.2z M-0.2,15.8
	c-8.8,0-16-7.2-16-16s7.2-16,16-16s16,7.2,16,16S8.7,15.8-0.2,15.8z"/>
<g>
	<line style="fill:#FFFF00;" x1="6.7" y1="-44.4" x2="45.2" y2="-3.6"/>
	<path style="fill:#9E005D;" d="M6.7-44.4C8.9-43.3,11-42,13-40.7c1.6,1.7,3.2,3.4,4.8,5.1l9.6,10.2c3.2,3.4,11.3,12.1,14.4,15.3
		c1.2,2.1,2.3,4.2,3.3,6.5C43-4.7,40.9-6,38.9-7.3c-3-3.2-11.3-12-14.4-15.3l-9.6-10.2c-1.6-1.7-3.2-3.4-4.8-5.1
		C8.9-40,7.7-42.1,6.7-44.4L6.7-44.4z"/>
</g>
<g>
	<line style="fill:#FFFF00;" x1="-14.6" y1="-45.4" x2="44.1" y2="17.7"/>
	<path style="fill:#9E005D;" d="M-14.6-45.4c3.1,2.1,5.9,4.3,8.8,6.5c2.4,2.7,4.9,5.3,7.3,7.9l14.7,15.8c4.8,5.2,17.3,18.6,22,23.6
		c2,3,4,6.1,5.9,9.2c-3-2.1-5.9-4.3-8.8-6.5c-4.6-5-17.2-18.5-22-23.6L-1.4-28.3c-2.5-2.6-4.9-5.3-7.3-7.9
		C-10.7-39.2-12.7-42.2-14.6-45.4L-14.6-45.4z"/>
</g>
<g>
	<line style="fill:#FFFF00;" x1="-29" y1="-35.8" x2="-9" y2="-11.8"/>
	<path style="fill:#9E005D;" d="M-29-35.8c1.5,0.5,2.8,1.1,4.1,1.7c0.8,1,1.7,2,2.5,3l5,6c1.6,2,5.9,7.1,7.5,9
		c0.4,1.4,0.7,2.8,1,4.3c-1.4-0.5-2.7-1.1-4-1.7c-1.6-1.9-5.9-7-7.5-9l-5-6c-0.8-1-1.7-2-2.5-3C-28.4-32.9-28.8-34.3-29-35.8
		L-29-35.8z"/>
</g>
<g>
	<line style="fill:#FFFF00;" x1="10.7" y1="11.3" x2="32.2" y2="33.9"/>
	<path style="fill:#9E005D;" d="M10.7,11.3c1.5,0.4,2.8,0.9,4.2,1.4c0.9,1,1.8,1.9,2.7,2.8l5.4,5.7c1.8,1.9,6.3,6.7,8.1,8.5
		c0.5,1.4,0.9,2.7,1.2,4.2c-1.5-0.4-2.8-0.9-4.1-1.5c-1.7-1.8-6.3-6.7-8.1-8.5l-5.4-5.7c-0.9-0.9-1.8-1.9-2.7-2.8
		C11.5,14.1,11,12.8,10.7,11.3L10.7,11.3z"/>
</g>
<g>
	<line style="fill:#FFFF00;" x1="-43.4" y1="-20.6" x2="13.8" y2="45.4"/>
	<path style="fill:#9E005D;" d="M-43.4-20.6c3,2.2,5.8,4.6,8.7,6.9c2.4,2.8,4.8,5.5,7.1,8.3l14.3,16.5c4.7,5.4,16.9,19.5,21.4,24.7
		c1.9,3.1,3.9,6.3,5.6,9.6c-3-2.2-5.8-4.6-8.7-6.9c-4.5-5.2-16.8-19.4-21.5-24.8L-30.6-2.8c-2.4-2.7-4.8-5.5-7.2-8.2
		C-39.7-14.2-41.6-17.3-43.4-20.6L-43.4-20.6z"/>
</g>
<g>
	<line style="fill:#FFFF00;" x1="-44.7" y1="0.4" x2="-8.5" y2="43.2"/>
	<path style="fill:#9E005D;" d="M-44.7,0.4c2.1,1.2,4.1,2.6,6.1,4c1.5,1.8,3,3.6,4.5,5.4l9,10.7c3,3.5,10.7,12.6,13.6,16
		c1,2.2,2.1,4.3,3,6.6c-2.1-1.3-4.1-2.7-6.1-4.1c-2.9-3.4-10.6-12.6-13.6-16.1l-9-10.7c-1.5-1.8-3-3.6-4.5-5.3
		C-42.7,4.9-43.8,2.7-44.7,0.4L-44.7,0.4z"/>
</g>
</svg>
